<svg width="57" height="16" viewBox="0 0 57 16" fill="none" xmlns="http://www.w3.org/2000/svg">
<path d="M8.91553 12.2168H4.03564L3.10791 15H0.148438L5.17676 1.49219H7.75586L12.812 15H9.85254L8.91553 12.2168ZM4.78711 9.9624H8.16406L6.46631 4.90625L4.78711 9.9624ZM16.7271 15H14.0366V4.96191H16.7271V15ZM13.8789 2.36426C13.8789 1.96224 14.0119 1.63135 14.2778 1.37158C14.55 1.11182 14.918 0.981934 15.3818 0.981934C15.8395 0.981934 16.2044 1.11182 16.4766 1.37158C16.7487 1.63135 16.8848 1.96224 16.8848 2.36426C16.8848 2.77246 16.7456 3.10645 16.4673 3.36621C16.1951 3.62598 15.8333 3.75586 15.3818 3.75586C14.9303 3.75586 14.5654 3.62598 14.2871 3.36621C14.015 3.10645 13.8789 2.77246 13.8789 2.36426ZM24.585 7.47607C24.2201 7.4266 23.8984 7.40186 23.6201 7.40186C22.6058 7.40186 21.9409 7.74512 21.6255 8.43164V15H18.9443V4.96191H21.4771L21.5513 6.15869C22.0894 5.23714 22.8346 4.77637 23.7871 4.77637C24.084 4.77637 24.3623 4.81657 24.6221 4.89697L24.585 7.47607ZM34.9292 10.0737C34.9292 11.6818 34.5859 12.9373 33.8994 13.8403C33.2129 14.7371 32.2542 15.1855 31.0234 15.1855C29.9349 15.1855 29.0659 14.7681 28.4165 13.9331L28.2959 15H25.8838V0.75H28.5649V5.86182C29.1834 5.13818 29.9967 4.77637 31.0049 4.77637C32.2295 4.77637 33.1882 5.22786 33.8809 6.13086C34.5798 7.02767 34.9292 8.29248 34.9292 9.92529V10.0737ZM32.248 9.87891C32.248 8.86458 32.0872 8.12549 31.7656 7.66162C31.444 7.19157 30.9647 6.95654 30.3276 6.95654C29.4741 6.95654 28.8866 7.30599 28.5649 8.00488V11.9663C28.8927 12.6714 29.4865 13.0239 30.3462 13.0239C31.2121 13.0239 31.7811 12.5972 32.0532 11.7437C32.1831 11.3354 32.248 10.7139 32.248 9.87891ZM39.0576 4.96191L39.1411 6.12158C39.8586 5.22477 40.8203 4.77637 42.0264 4.77637C43.0902 4.77637 43.8818 5.0887 44.4014 5.71338C44.9209 6.33805 45.1868 7.27197 45.1992 8.51514V15H42.5181V8.58008C42.5181 8.01107 42.3944 7.59977 42.147 7.34619C41.8996 7.08643 41.4883 6.95654 40.9131 6.95654C40.1585 6.95654 39.5926 7.27816 39.2153 7.92139V15H36.5342V4.96191H39.0576ZM56.2856 10.0737C56.2856 11.6818 55.9424 12.9373 55.2559 13.8403C54.5693 14.7371 53.6107 15.1855 52.3799 15.1855C51.2913 15.1855 50.4224 14.7681 49.7729 13.9331L49.6523 15H47.2402V0.75H49.9214V5.86182C50.5399 5.13818 51.3532 4.77637 52.3613 4.77637C53.5859 4.77637 54.5446 5.22786 55.2373 6.13086C55.9362 7.02767 56.2856 8.29248 56.2856 9.92529V10.0737ZM53.6045 9.87891C53.6045 8.86458 53.4437 8.12549 53.1221 7.66162C52.8005 7.19157 52.3211 6.95654 51.6841 6.95654C50.8306 6.95654 50.243 7.30599 49.9214 8.00488V11.9663C50.2492 12.6714 50.8429 13.0239 51.7026 13.0239C52.5685 13.0239 53.1375 12.5972 53.4097 11.7437C53.5396 11.3354 53.6045 10.7139 53.6045 9.87891Z" fill="#FEFEFE"/>
</svg>
