<svg width="128" height="128" viewBox="0 0 128 128" fill="none" xmlns="http://www.w3.org/2000/svg">
<path d="M63.9104 94.2974C57.3824 86.1054 53.5424 78.9246 52.2624 72.7806C50.9824 67.7886 51.4944 63.8206 53.6704 60.8766C55.9744 57.4206 59.4304 55.7566 63.9104 55.7566C68.3904 55.7566 71.8464 57.4206 74.1504 60.8766C76.3264 63.8206 76.8384 67.7886 75.5584 72.7806C74.1504 79.0526 70.3104 86.2206 63.9104 94.2974V94.2974ZM110.272 99.8014C109.376 105.817 105.28 110.809 99.648 113.241C88.768 117.977 78.0032 110.425 68.7872 100.185C84.032 81.1006 86.848 66.2526 80.3072 56.6398C76.4672 51.1358 70.9632 48.4478 63.9104 48.4478C49.7024 48.4478 41.8816 60.4798 44.9536 74.4446C46.7456 81.9966 51.4816 90.5854 59.0336 100.185C54.2976 105.433 49.8176 109.145 45.8496 111.449C42.7776 113.113 39.8336 114.137 37.0176 114.393C24.0896 116.313 13.9648 103.769 18.5728 90.8286C19.2128 89.1646 20.4928 86.0926 22.6688 81.3566L22.7968 81.1006C29.8368 65.7278 38.4256 48.3198 48.2816 28.979L48.5376 28.339L51.3536 22.963C53.5296 18.995 54.4256 17.203 57.8816 15.027C59.5456 14.003 61.5936 13.491 63.8976 13.491C68.5056 13.491 72.0896 16.179 73.6256 18.355C74.3936 19.507 75.2896 21.043 76.4416 22.963L79.1296 28.211L79.5136 28.979C89.3696 48.3198 97.9584 65.7278 104.998 81.1006L105.126 81.2286L107.686 87.1166L109.222 90.8286C110.4 93.7854 110.656 96.7294 110.272 99.8014ZM116.16 88.2686C115.264 85.4526 113.728 82.1246 111.808 78.1566V78.0286C102.72 58.6878 94.2592 41.2798 86.1952 25.651L85.6832 24.883C79.9232 13.107 75.8272 6.0542 63.9104 6.0542C52.1344 6.0542 47.1296 14.2462 42.0096 24.883L41.6256 25.651C33.5616 41.2798 25.1008 58.6878 16.0128 78.0286V78.2846L13.3248 84.1726C12.3008 86.6046 11.7888 87.8846 11.6608 88.2686C5.13275 106.201 18.5728 121.945 34.8416 121.945C34.9696 121.945 35.4816 121.945 36.1216 121.817H37.9136C46.3616 120.793 55.0784 115.417 63.9104 105.805C72.7424 115.405 81.4592 120.793 89.9072 121.817H91.6992C92.3392 121.945 92.8512 121.945 92.9792 121.945C109.248 121.958 122.688 106.201 116.16 88.2686Z" fill="white"/>
</svg>
